<svg width="32" height="32" viewBox="0 0 32 32" fill="none" xmlns="http://www.w3.org/2000/svg">
  <rect width="32" height="32" rx="7" fill="#295AB9"/>
  <g transform="translate(4.75,4.75) scale(0.9375)" stroke="#FFFFFF" stroke-width="1.6" stroke-linecap="round" stroke-linejoin="round" fill="none">
    <path d="M12 18V5"/>
    <path d="M15 13a4.17 4.17 0 0 1-3-4 4.17 4.17 0 0 1-3 4"/>
    <path d="M17.598 6.5A3 3 0 1 0 12 5a3 3 0 1 0-5.598 1.5"/>
    <path d="M17.997 5.125a4 4 0 0 1 2.526 5.77"/>
    <path d="M18 18a4 4 0 0 0 2-7.464"/>
    <path d="M19.967 17.483A4 4 0 1 1 12 18a4 4 0 1 1-7.967-.517"/>
    <path d="M6 18a4 4 0 0 1-2-7.464"/>
    <path d="M6.003 5.125a4 4 0 0 0-2.526 5.77"/>
  </g>
</svg>
